<?xml version="1.0" encoding="UTF-8"?>
<svg version="1.1" xmlns="http://www.w3.org/2000/svg" width="512" height="512">
<path d="M0 0 C168.96 0 337.92 0 512 0 C512 168.96 512 337.92 512 512 C343.04 512 174.08 512 0 512 C0 343.04 0 174.08 0 0 Z " fill="#1B2868" transform="translate(0,0)"/>
<path d="M0 0 C1.32947915 -0.00384491 1.32947915 -0.00384491 2.68581647 -0.0077675 C5.65549077 -0.01270862 8.6246566 0.00379309 11.59428406 0.02018738 C13.7230732 0.02103358 15.85186322 0.02055865 17.98065186 0.01885986 C23.7612397 0.01799821 29.54164125 0.0356516 35.32218575 0.05658174 C41.36267928 0.07532016 47.40317696 0.07709674 53.44369507 0.08065796 C64.88292724 0.08998674 76.32207351 0.11461187 87.76126784 0.14470643 C103.218583 0.1844903 118.6759216 0.20069857 134.13327503 0.21821308 C158.48842507 0.2464323 182.84339385 0.3061964 207.1985321 0.36076355 C207.1985321 40.29076355 207.1985321 80.22076355 207.1985321 121.36076355 C202.1985321 116.36076355 202.1985321 116.36076355 200.45243835 114.43888855 C188.34857949 101.35665772 171.27712197 93.45564539 153.55289268 92.16865921 C150.86629813 92.09037861 148.18581682 92.06759834 145.49809265 92.07023621 C144.49175278 92.06351898 143.4854129 92.05680176 142.44857788 92.04988098 C139.16075048 92.03106113 135.87312856 92.02698629 132.58525085 92.02482605 C130.28363972 92.01839175 127.98202938 92.01166292 125.68041992 92.00465393 C120.8751587 91.9927248 116.06996918 91.98896908 111.26469421 91.99015808 C105.10998582 91.99036212 98.95573475 91.96295274 92.80113506 91.92861366 C88.05620203 91.90638559 83.3113803 91.90231913 78.56640053 91.90337753 C76.29660769 91.90101955 74.02681187 91.89218494 71.75707054 91.8767128 C68.58838414 91.85711714 65.42070145 91.86286391 62.2519989 91.87492371 C61.31837524 91.86368469 60.38475159 91.85244568 59.4228363 91.84086609 C53.87187111 91.89455028 50.50925294 92.51666886 46.1985321 96.36076355 C42.40610996 101.03762149 42.77450266 105.62521599 42.81085205 111.36793518 C42.80546651 112.38407288 42.80008098 113.40021058 42.79453224 114.44714034 C42.78021002 117.85645908 42.78736708 121.2653919 42.79447937 124.67472839 C42.78877802 127.11728224 42.78181468 129.55983341 42.77368164 132.00238037 C42.75757582 137.9511111 42.75565511 143.89968987 42.76089454 149.84842752 C42.76493658 154.68426251 42.7634923 159.52006631 42.75814629 164.35589981 C42.75702365 165.38844947 42.75702365 165.38844947 42.75587834 166.44185872 C42.75434685 167.84030394 42.75280851 169.23874915 42.75126337 170.63719435 C42.73753558 183.7515296 42.74297774 196.8658052 42.75444859 209.98013909 C42.764379 221.97379147 42.75144418 233.96728954 42.72751439 245.96091811 C42.70312191 258.27939145 42.69351602 270.59779292 42.70016712 282.91628993 C42.70365931 289.83080381 42.70142747 296.74519905 42.68391609 303.65969467 C42.66765268 310.16204822 42.67237814 316.66415498 42.69122124 323.16651726 C42.69491336 325.55339056 42.69178062 327.9402856 42.68133545 330.3271389 C42.66816701 333.58497572 42.67963739 336.84183024 42.69732666 340.09962463 C42.68291915 341.51719309 42.68291915 341.51719309 42.66822058 342.96339929 C42.73508311 348.94650814 43.72808291 352.44902152 47.1985321 357.36076355 C50.80989684 360.55940089 54.25111185 360.88728966 58.9172821 360.7084198 C62.8512963 360.10888681 65.00830618 358.78533525 68.1985321 356.36076355 C71.81700854 350.98062429 71.63989759 345.92520135 71.63090515 339.67375183 C71.6410968 338.60973648 71.65128845 337.54572113 71.66178894 336.44946289 C71.69190913 332.94328031 71.70118367 329.437371 71.71025085 325.93107605 C71.72709821 323.49583529 71.74524852 321.06060323 71.76464844 318.62538147 C71.81214812 312.2237876 71.84195792 305.82222898 71.86808777 299.42051697 C71.89789326 292.88490335 71.9444237 286.34941118 71.98954773 279.81388855 C72.07558062 266.99624626 72.1434943 254.17857449 72.1985321 241.36076355 C73.73376778 241.35196419 73.73376778 241.35196419 75.30001831 241.34298706 C84.99405787 241.28551799 94.68787829 241.21263232 104.38169384 241.12504864 C109.36416156 241.08051678 114.34655073 241.04122378 119.32914734 241.014328 C124.14687656 240.98812233 128.96430069 240.9476008 133.78183937 240.89757729 C135.61038195 240.88102441 137.43897716 240.86943866 139.26758385 240.86314964 C160.17536799 240.78403856 178.60298021 236.88915074 195.1985321 223.36076355 C196.05704773 222.69818542 196.91556335 222.0356073 197.8000946 221.35295105 C199.96430376 219.55531804 201.68132582 217.78721761 203.4485321 215.61076355 C204.34515473 214.51078321 205.25646346 213.42208139 206.1985321 212.36076355 C206.5285321 212.36076355 206.8585321 212.36076355 207.1985321 212.36076355 C207.1985321 291.56076355 207.1985321 370.76076355 207.1985321 452.36076355 C171.7029071 452.46388855 136.2072821 452.56701355 99.6360321 452.67326355 C88.42304138 452.71878357 77.21005066 452.76430359 65.65727234 452.811203 C51.97795105 452.83378601 51.97795105 452.83378601 45.57659912 452.83798218 C41.10011436 452.84264555 36.62392527 452.8614028 32.14752197 452.88864136 C26.43834712 452.92292137 20.72960259 452.93322239 15.02033436 452.92612493 C12.92458156 452.92760917 10.82881381 452.93753371 8.73314941 452.9568392 C5.90172493 452.98171185 3.07197192 452.97571594 0.24050903 452.96203613 C-0.57930923 452.97659945 -1.39912748 452.99116278 -2.24378872 453.00616741 C-7.20246342 452.9417776 -10.28400698 451.94535441 -14.29513115 449.01931256 C-18.47167392 444.42073864 -19.17728863 439.9569225 -19.18457794 433.91094303 C-19.19201721 432.81217061 -19.19201721 432.81217061 -19.19960678 431.69120076 C-19.21256599 429.2352617 -19.20417737 426.77986603 -19.19587708 424.32391357 C-19.20076582 422.54593121 -19.20695555 420.76795203 -19.21433496 418.98997825 C-19.23075952 414.10292267 -19.22841144 409.21602814 -19.22296 404.32895458 C-19.22029293 399.05891805 -19.23481546 393.78892475 -19.24705505 388.51890564 C-19.26812434 378.19413891 -19.27264907 367.86942832 -19.27086717 357.54464263 C-19.26956039 349.15429641 -19.27335938 340.76396772 -19.28079224 332.3736248 C-19.28289139 329.95832362 -19.28498899 327.54302244 -19.28708506 325.12772125 C-19.28812858 323.92562643 -19.28917211 322.7235316 -19.29024726 321.48500966 C-19.3091554 298.74316515 -19.30809756 276.00135289 -19.30127794 253.25950377 C-19.29570104 232.44558166 -19.31653316 211.63178258 -19.3496384 190.81788922 C-19.38335397 169.45477042 -19.39854646 148.09171059 -19.39392138 126.72856468 C-19.39167466 114.73130602 -19.39694955 102.73416109 -19.42181396 90.73692513 C-19.44279941 80.52423176 -19.44644636 70.31171452 -19.42751437 60.09901399 C-19.41833989 54.88697631 -19.41726603 49.67526725 -19.43787003 44.46325493 C-19.45651883 39.69314713 -19.45214514 34.92363851 -19.42932421 30.15355396 C-19.42512304 28.42683603 -19.4293892 26.70007271 -19.44292015 24.97340269 C-19.54889731 10.46297578 -19.54889731 10.46297578 -16.57512665 5.97552395 C-10.98970755 0.71008434 -7.44760852 -0.07880208 0 0 Z " fill="#053791" transform="translate(48.80146789550781,29.639236450195313)"/>
<path d="M0 0 C168.96 0 337.92 0 512 0 C512 168.96 512 337.92 512 512 C343.04 512 174.08 512 0 512 C0 343.04 0 174.08 0 0 Z M33 35 C29.92461966 39.15639415 29.62306916 42.19939512 29.61688995 47.32397938 C29.61193044 48.05504089 29.60697092 48.78610239 29.60186112 49.53931728 C29.58887687 51.99634273 29.59729847 54.45282725 29.60559082 56.90986633 C29.60070324 58.68627296 29.59451406 60.4626764 29.58713293 62.23907441 C29.57069321 67.12645866 29.57305954 72.01368203 29.5785079 76.9010843 C29.58117315 82.16979424 29.56665575 87.43846081 29.55441284 92.70715332 C29.53333487 103.03172425 29.52881936 113.35623906 29.53060073 123.68082897 C29.53190723 132.07166725 29.52810991 140.462488 29.52067566 148.85332298 C29.51857651 151.26830981 29.51647891 153.68329664 29.51438284 156.09828347 C29.51333931 157.30021532 29.51229578 158.50214716 29.51122063 159.74050119 C29.49230851 182.48427915 29.49337136 205.22802487 29.50018996 227.97180744 C29.50576541 248.78511759 29.48494158 269.59830465 29.45182949 290.41158602 C29.41810784 311.77354799 29.40292231 333.13545096 29.40754652 354.49744004 C29.40979284 366.49418655 29.40452427 378.4908193 29.37965393 390.48754311 C29.35866047 400.70133004 29.35502938 410.91494086 29.37395352 421.12873498 C29.38312358 426.34088961 29.38421539 431.55271569 29.36359787 436.76484489 C29.34493223 441.53627832 29.34934187 446.3071131 29.37214369 451.07852342 C29.37634062 452.80461609 29.3720928 454.53075427 29.35854775 456.2567989 C29.04261421 467.49325218 29.04261421 467.49325218 33.43981695 477.56491154 C37.88776089 481.65622186 41.3342525 482.37528433 47.329566 482.37752342 C48.0612267 482.38188374 48.7928874 482.38624407 49.54671964 482.39073652 C52.00577541 482.401711 54.46427262 482.39126076 56.92332458 482.38095093 C58.70115559 482.38440663 60.47898445 482.38917061 62.25680882 482.39513266 C67.14806479 482.40768442 72.03914571 482.4014533 76.9304024 482.39217401 C82.20315605 482.38540088 87.47587909 482.39585614 92.74862671 482.40411377 C103.08055617 482.41747215 113.41242035 482.41456391 123.74435239 482.40587585 C132.13997373 482.39910762 140.53557674 482.39817885 148.93120003 482.4014473 C150.12497093 482.401907 151.31874184 482.40236669 152.54868763 482.40284032 C154.97363257 482.40379948 157.39857752 482.40477212 159.82352246 482.4057581 C182.57678252 482.41431825 205.33000636 482.40446824 228.08326048 482.388357 C247.61517683 482.37495498 267.1470397 482.37727976 286.67895508 482.39111328 C309.34785136 482.40716101 332.01671586 482.41349241 354.68561703 482.40427649 C357.10207275 482.40332082 359.51852848 482.40237771 361.93498421 482.4014473 C363.71850268 482.40075306 363.71850268 482.40075306 365.53805183 482.40004479 C373.92504337 482.39745235 382.31201479 482.40183141 390.69900322 482.40888596 C400.91794042 482.41729226 411.13680848 482.4150392 421.35573774 482.39904372 C426.57161583 482.39114905 431.78737856 482.38808978 437.00325584 482.39799118 C441.77569192 482.40691388 446.5479054 482.40204527 451.32032121 482.38605852 C453.04906698 482.38270041 454.77783147 482.38442785 456.50656527 482.39168589 C458.85284341 482.40078291 461.19835497 482.39147808 463.54459286 482.37752342 C465.50102338 482.37679284 465.50102338 482.37679284 467.49697775 482.37604749 C472.59451089 481.82883014 475.84087877 480.25310403 479.3125 476.5 C482.17870792 472.25376604 482.12733933 468.93723287 482.13422108 463.91652966 C482.13774942 462.82250014 482.13774942 462.82250014 482.14134905 461.70636901 C482.1480474 459.24329273 482.14758057 456.78026909 482.14717102 454.31718445 C482.15046911 452.54108166 482.15419456 450.76497962 482.1583125 448.98887855 C482.16834661 444.09316084 482.17205155 439.19745538 482.17470181 434.30172884 C482.17860061 429.0275836 482.18817915 423.75344811 482.19691467 418.47930908 C482.21668971 405.73589178 482.226746 392.99247368 482.23564246 380.24904487 C482.24002312 374.2522142 482.24539045 368.25538442 482.25063133 362.25855446 C482.26764363 342.33177594 482.28213917 322.40499798 482.28938007 302.47821331 C482.29129005 297.30554389 482.29321037 292.13287448 482.29516602 286.96020508 C482.29564976 285.67452048 482.2961335 284.38883588 482.2966319 283.06419114 C482.30493731 262.22355978 482.33028286 241.38298572 482.36274669 220.5423794 C482.39578353 199.16015965 482.41382572 177.77796906 482.41702431 156.39572364 C482.4191924 144.38448872 482.42798474 132.3733374 482.45348549 120.3621273 C482.4751463 110.1358199 482.48326567 99.9096164 482.47351871 89.68328866 C482.46896076 84.46333141 482.47094682 79.24358875 482.49028015 74.02366066 C482.50781794 69.24740184 482.50699085 64.47151562 482.49138286 59.69525335 C482.48899247 57.96509518 482.4934039 56.23491183 482.50521151 54.5047923 C482.52024909 52.15640347 482.51071571 49.80934884 482.49498463 47.46099377 C482.49644984 45.50293703 482.49644984 45.50293703 482.49794465 43.50532359 C481.79632906 38.56624118 479.6509677 35.4508504 475.9375 32.1875 C471.94811343 29.7423921 468.49799598 29.87116694 463.91932297 29.86298561 C463.19026955 29.86033378 462.46121614 29.85768196 461.71007019 29.85494977 C459.24800516 29.84724267 456.78598988 29.84669706 454.32391357 29.84609985 C452.54852332 29.84208617 450.77313398 29.83764811 448.99774575 29.8328203 C444.10396044 29.82083864 439.210185 29.81520267 434.31638789 29.81063914 C429.04426725 29.80468917 423.77215844 29.79307791 418.50004578 29.78234863 C405.76107523 29.75781222 393.02210075 29.74319642 380.28311384 29.73028857 C376.68668649 29.72657778 373.09025954 29.72260447 369.49383259 29.7185359 C347.17256746 29.69330248 324.85130173 29.6712439 302.53002548 29.65880775 C297.35839587 29.65587794 292.18676628 29.65291629 287.01513672 29.64990234 C285.72971443 29.64915629 284.44429214 29.64841024 283.11991766 29.64764158 C262.28641414 29.63498188 241.45299585 29.6017511 220.6195322 29.56010051 C199.24295826 29.51771347 177.866428 29.49411653 156.48981214 29.48888719 C144.4824357 29.4854696 132.4751925 29.47367325 120.46785736 29.44078445 C110.24412649 29.4128273 100.02055616 29.4017656 89.79679003 29.41297992 C84.57868707 29.41817748 79.36092054 29.41520843 74.14286613 29.39051437 C69.36710483 29.36810163 64.59192316 29.36869952 59.81615224 29.38771825 C58.08731875 29.39052946 56.3584466 29.38485775 54.62967548 29.36990531 C42.71152085 28.93427909 42.71152085 28.93427909 33 35 Z " fill="#9AC4FE" transform="translate(0,0)"/>
<path d="M0 0 C84.48 0 168.96 0 256 0 C256 168.96 256 337.92 256 512 C171.52 512 87.04 512 0 512 C0 502.1 0 492.2 0 482 C2.68021271 481.99413376 5.36042542 481.98826752 8.12185669 481.98222351 C33.34352468 481.92560341 58.56510662 481.85254781 83.78668404 481.76428509 C96.75426547 481.71930178 109.72181929 481.67989292 122.68945312 481.65356445 C133.99081543 481.63060496 145.29209051 481.5972298 156.59338367 481.55129844 C162.57843441 481.52733869 168.56339862 481.50862791 174.54849625 481.50238609 C180.18077982 481.49634776 185.8128419 481.47639297 191.44504356 481.44572449 C193.51303127 481.43692422 195.5810479 481.43322578 197.64905357 481.43499184 C200.47170641 481.43664139 203.29368151 481.41997221 206.11624146 481.39872742 C206.93531829 481.40357499 207.75439512 481.40842257 208.59829247 481.41341704 C213.46296513 481.35295653 216.76549625 480.64871777 221 478 C224.99168199 473.59538539 225.12628886 469.70362565 225.13422108 463.91652966 C225.13774942 462.82250014 225.13774942 462.82250014 225.14134905 461.70636901 C225.1480474 459.24329273 225.14758057 456.78026909 225.14717102 454.31718445 C225.15046911 452.54108166 225.15419456 450.76497962 225.1583125 448.98887855 C225.16834661 444.09316084 225.17205155 439.19745538 225.17470181 434.30172884 C225.17860061 429.0275836 225.18817915 423.75344811 225.19691467 418.47930908 C225.21668971 405.73589178 225.226746 392.99247368 225.23564246 380.24904487 C225.24002312 374.2522142 225.24539045 368.25538442 225.25063133 362.25855446 C225.26764363 342.33177594 225.28213917 322.40499798 225.28938007 302.47821331 C225.29129005 297.30554389 225.29321037 292.13287448 225.29516602 286.96020508 C225.29564976 285.67452048 225.2961335 284.38883588 225.2966319 283.06419114 C225.30493731 262.22355978 225.33028286 241.38298572 225.36274669 220.5423794 C225.39578353 199.16015965 225.41382572 177.77796906 225.41702431 156.39572364 C225.4191924 144.38448872 225.42798474 132.3733374 225.45348549 120.3621273 C225.4751463 110.1358199 225.48326567 99.9096164 225.47351871 89.68328866 C225.46896076 84.46333141 225.47094682 79.24358875 225.49028015 74.02366066 C225.50781794 69.24740184 225.50699085 64.47151562 225.49138286 59.69525335 C225.48899247 57.96509518 225.4934039 56.23491183 225.50521151 54.5047923 C225.52024909 52.15640347 225.51071571 49.80934884 225.49498463 47.46099377 C225.49644984 45.50293703 225.49644984 45.50293703 225.49794465 43.50532359 C224.91072946 39.37157249 223.60356214 37.22699787 221 34 C216.13330018 30.6587879 211.80745763 30.56759002 206.11624146 30.60127258 C205.23315115 30.59462576 204.35006084 30.58797893 203.44021022 30.58113068 C200.48752878 30.56251028 197.53525291 30.56510535 194.58251953 30.56762695 C192.46342904 30.55860922 190.34434377 30.54828198 188.2252655 30.53674316 C182.47579042 30.50914848 176.72641424 30.49988524 170.9768815 30.49388909 C164.96704082 30.48451191 158.95727421 30.45830902 152.94747925 30.43388367 C141.56854344 30.39019701 130.189622 30.3616633 118.81062782 30.33856028 C105.85543259 30.31152027 92.9003118 30.26760798 79.94516969 30.22227156 C53.29681854 30.12939422 26.64844723 30.05832605 0 30 C0 20.1 0 10.2 0 0 Z " fill="#75B2FB" transform="translate(256,0)"/>
<path d="M0 0 C1.4913295 -0.00788544 1.4913295 -0.00788544 3.01278687 -0.01593018 C6.29970017 -0.02913165 9.58612861 -0.02038593 12.87304688 -0.01025391 C15.16646416 -0.01227587 17.45988081 -0.01518833 19.7532959 -0.01895142 C24.56508492 -0.02337605 29.37670695 -0.01694381 34.18847656 -0.00292969 C40.32692163 0.01408498 46.46497093 0.00437084 52.60340118 -0.01364708 C57.34434933 -0.02454707 62.08520552 -0.02100886 66.82615662 -0.0132637 C69.08735705 -0.01127482 71.34856608 -0.01367441 73.60975647 -0.02070236 C96.13431952 -0.07530549 96.13431952 -0.07530549 107.09179688 3.38818359 C108.29835937 3.74138672 109.50492188 4.09458984 110.74804688 4.45849609 C130.09066968 11.63227103 145.28939229 26.26387914 154.34179688 44.70068359 C162.04605953 62.4369674 162.93502966 83.1686504 156.09179688 101.38818359 C148.27940516 121.00357048 134.35107245 136.06948225 114.95898438 144.79833984 C101.49677775 150.25642125 88.95194627 150.6681426 74.64257812 150.58349609 C72.77500053 150.57975921 70.90742096 150.57691543 69.0398407 150.57492065 C64.15892994 150.56733736 59.27814096 150.54773529 54.39727783 150.5255127 C49.40288947 150.50493912 44.40848115 150.49589447 39.4140625 150.48583984 C29.63992088 150.46448369 19.86586906 150.43041289 10.09179688 150.38818359 C10.09640584 150.94256607 10.1010148 151.49694855 10.10576344 152.06813049 C10.21637235 165.58172544 10.2986965 179.09524066 10.35085773 192.60919189 C10.37693224 199.14458098 10.41229246 205.67964293 10.46899414 212.21484375 C10.52338841 218.52370411 10.55323356 224.83225012 10.56618309 231.1413269 C10.57540949 233.54626411 10.5934266 235.95118444 10.62044716 238.35598755 C10.6568343 241.72907459 10.66173794 245.10086883 10.65942383 248.47412109 C10.67740021 249.46458939 10.69537659 250.45505768 10.71389771 251.47554016 C10.66584791 257.96395182 9.37180992 262.40905203 5.09179688 267.38818359 C1.04205074 270.33345351 -2.75159831 270.98442357 -7.66210938 270.80224609 C-11.495247 270.09561551 -14.3204155 268.2709522 -16.90820312 265.38818359 C-20.32657316 260.0044344 -20.33733031 255.42898602 -20.3026123 249.26075745 C-20.30870341 248.24376532 -20.31479451 247.22677319 -20.32107019 246.17896312 C-20.3377131 242.77275954 -20.33292243 239.36692925 -20.328125 235.96069336 C-20.33546451 233.51799124 -20.34405039 231.0752926 -20.35379028 228.63259888 C-20.37371678 222.68737332 -20.37938629 216.7422387 -20.3776024 210.79698939 C-20.3762939 205.96403759 -20.38010337 201.13111617 -20.38752747 196.29817009 C-20.38962669 194.90515977 -20.39172429 193.51214946 -20.39382029 192.11913913 C-20.39486381 191.42576676 -20.39590734 190.73239439 -20.39698249 190.01801073 C-20.41587662 176.91035189 -20.41483707 163.80274905 -20.40801316 150.69508224 C-20.40243702 138.70793146 -20.42326753 126.72099436 -20.45637363 114.73389352 C-20.49011814 102.41990623 -20.50527812 90.10602128 -20.5006566 77.79198688 C-20.49841284 70.88080797 -20.50364148 63.96982659 -20.52854919 57.05868721 C-20.55177003 50.56039698 -20.54897035 44.06243908 -20.52862167 37.56413651 C-20.52520487 35.17887083 -20.53032935 32.79357539 -20.54460526 30.40834999 C-20.56274741 27.15257589 -20.55008449 23.89832111 -20.52966309 20.64259338 C-20.54218093 19.69822987 -20.55469878 18.75386635 -20.56759596 17.78088576 C-20.48140375 11.37340268 -19.13416606 8.23292338 -14.90820312 3.38818359 C-10.45086418 -0.50011092 -5.62716988 -0.03658379 0 0 Z " fill="#9AC4FE" transform="translate(110.908203125,120.61181640625)"/>
<path d="M0 0 C1.28632324 -0.0099852 1.28632324 -0.0099852 2.59863281 -0.02017212 C4.400369 -0.03023597 6.20214199 -0.0349911 8.00390625 -0.03466797 C10.74281562 -0.039051 13.48012378 -0.07546306 16.21875 -0.11328125 C17.97916122 -0.11914902 19.73958 -0.12311868 21.5 -0.125 C22.71284668 -0.14655655 22.71284668 -0.14655655 23.95019531 -0.16854858 C29.59106123 -0.12372741 34.09512038 1.038419 38.75 4.3359375 C41.52242312 7.47410513 42.64574147 10.61916009 43.25 14.7734375 C42.63528418 19.15328771 41.7011051 22.96026303 38.75 26.3359375 C33.27275136 29.88962518 28.56153208 30.90240228 22.12109375 30.8046875 C21.32776138 30.81173706 20.53442902 30.81878662 19.71705627 30.8260498 C17.20686855 30.84791283 14.69775386 30.84512283 12.1875 30.8359375 C8.87312671 30.82383544 5.56032994 30.8377016 2.24609375 30.8671875 C1.49798935 30.85586792 0.74988495 30.84454834 -0.02088928 30.83288574 C-5.52562156 30.88534169 -8.796999 32.02675399 -13.25 35.3359375 C-17.16034484 40.55540867 -16.72328175 46.37966487 -16.76171875 52.640625 C-16.77966995 53.71974152 -16.79762115 54.79885803 -16.81611633 55.91067505 C-16.87012867 59.34405659 -16.9040867 62.77729981 -16.9375 66.2109375 C-16.970681 68.54429004 -17.00517138 70.87762435 -17.04101562 73.2109375 C-17.12584996 78.91914678 -17.19423829 84.62737416 -17.25 90.3359375 C-16.66641724 90.32705505 -16.08283447 90.31817261 -15.48156738 90.309021 C-9.38169191 90.22020225 -3.28200156 90.16006057 2.81835938 90.11621094 C5.09187284 90.09615433 7.3653351 90.06890212 9.63867188 90.03417969 C12.91549349 89.98540038 16.19163025 89.96290853 19.46875 89.9453125 C20.98172668 89.91434479 20.98172668 89.91434479 22.52526855 89.88275146 C28.69916803 89.88080925 33.68609813 90.58047792 38.75 94.3359375 C41.51462842 97.48393396 42.64501876 100.6141915 43.25 104.7734375 C42.63528418 109.15328771 41.7011051 112.96026303 38.75 116.3359375 C32.17374897 120.38798528 27.09579307 120.88267335 19.46875 120.7265625 C18.41465942 120.72090271 17.36056885 120.71524292 16.27453613 120.70941162 C12.93254746 120.68715484 9.59166053 120.63697727 6.25 120.5859375 C3.9739739 120.56585873 1.69793087 120.54761038 -0.578125 120.53125 C-6.13578782 120.4873253 -11.69281517 120.42052087 -17.25 120.3359375 C-17.24631283 121.03977821 -17.24262566 121.74361893 -17.23882675 122.46878815 C-17.1504027 139.61259791 -17.08425494 156.75634958 -17.04275131 173.90033722 C-17.02214581 182.19112855 -16.99406387 190.48176746 -16.94824219 198.77246094 C-16.9083126 206.0005356 -16.88255256 213.22849984 -16.87364602 220.45668173 C-16.86844158 224.28228015 -16.85625171 228.10756272 -16.82707977 231.93305969 C-16.79981357 235.53804904 -16.79157736 239.14259417 -16.79756927 242.74767685 C-16.79595403 244.69281446 -16.77449002 246.63790433 -16.75231934 248.58291626 C-16.78545707 255.6468978 -17.40409661 260.34633297 -21.25 266.3359375 C-24.62567447 269.2870426 -28.43264979 270.22122168 -32.8125 270.8359375 C-36.97706718 270.23018227 -40.09147691 269.09212312 -43.25 266.3359375 C-47.88925128 259.29238563 -47.79836323 253.02924662 -47.70410156 244.75976562 C-47.70297158 243.39899733 -47.70360988 242.0382266 -47.70587158 240.67745972 C-47.70701381 237.0042801 -47.68358524 233.33162869 -47.65557575 229.65857124 C-47.63047935 225.81224408 -47.62821364 221.96590325 -47.62347412 218.11950684 C-47.61106843 210.84521747 -47.57827971 203.57117011 -47.53807616 196.29698706 C-47.49328322 188.01162463 -47.47135256 179.72625032 -47.45129442 171.44079685 C-47.4095447 154.40570403 -47.33923985 137.3708464 -47.25 120.3359375 C-48.54035156 120.38234375 -49.83070313 120.42875 -51.16015625 120.4765625 C-52.87758088 120.51410184 -54.59503072 120.55049967 -56.3125 120.5859375 C-57.16005859 120.61945313 -58.00761719 120.65296875 -58.88085938 120.6875 C-64.90289238 120.78050437 -68.31176216 119.82482623 -73.25 116.3359375 C-76.08895714 112.88507481 -77.13537524 109.15263889 -77.75 104.7734375 C-77.14813605 100.63562283 -76.12482468 97.42691441 -73.25 94.3359375 C-67.47691184 90.28374199 -63.26433003 89.81103624 -56.3125 90.0859375 C-55.43787109 90.10398437 -54.56324219 90.12203125 -53.66210938 90.140625 C-51.52425892 90.18735397 -49.38697955 90.25908309 -47.25 90.3359375 C-47.25888245 89.71334549 -47.26776489 89.09075348 -47.2769165 88.44929504 C-47.36609817 81.91070837 -47.42602513 75.37229723 -47.46972656 68.83325195 C-47.48971822 66.39991221 -47.51692074 63.96661975 -47.55175781 61.53344727 C-47.81457903 42.69148467 -47.79387097 27.52351874 -34.1484375 13.1171875 C-24.34748569 3.83572077 -13.32164344 0.03666903 0 0 Z " fill="#74B1FB" transform="translate(378.25,120.6640625)"/>
<path d="M0 0 C13.261875 -0.0825 26.52375 -0.165 40.1875 -0.25 C46.43143677 -0.30462402 46.43143677 -0.30462402 52.80151367 -0.36035156 C57.94787598 -0.37841797 57.94787598 -0.37841797 60.36933899 -0.3817749 C62.03381142 -0.38785287 63.69826805 -0.40178501 65.36262512 -0.42230225 C81.65211592 -0.61279011 94.92730572 1.45931422 107.21875 13.1015625 C116.51061021 22.91348951 120.45600307 33.68884707 120.1875 47.046875 C119.36287572 60.03470748 113.64262031 70.97885972 104.125 79.75 C91.61724216 90.13379896 76.84266995 90.43967906 61.328125 90.29296875 C59.75179361 90.28854656 58.17545779 90.28549303 56.59912109 90.28381348 C50.81601265 90.26821611 45.0329991 90.22633283 39.25 90.1875 C19.82125 90.0946875 19.82125 90.0946875 0 90 C0 60.3 0 30.6 0 0 Z " fill="#053791" transform="translate(121,151)"/>
<path d="M0 0 C11.42620895 11.42620895 15.21329193 27.62073789 15.4375 43.3125 C15.32596281 58.99184073 11.50072963 77.49927037 0 89 C0 59.63 0 30.26 0 0 Z " fill="#74B0FA" transform="translate(256,152)"/>
<path d="M0 0 C1.10845475 2.21690951 2.20116477 4.44269062 3.2265625 6.69921875 C8.85221932 18.72052452 16.07723317 27.11909564 28.63671875 32.03125 C30.7464927 32.74665216 32.85257368 33.40867971 35 34 C35 34.33 35 34.66 35 35 C23.45 35 11.9 35 0 35 C0 23.45 0 11.9 0 0 Z " fill="#000000" transform="translate(0,477)"/>
<path d="M0 0 C11.55 0 23.1 0 35 0 C32.78309049 1.10845475 30.55730938 2.20116477 28.30078125 3.2265625 C16.27947548 8.85221932 7.88090436 16.07723317 2.96875 28.63671875 C2.25334784 30.7464927 1.59132029 32.85257368 1 35 C0.67 35 0.34 35 0 35 C0 23.45 0 11.9 0 0 Z " fill="#000000" transform="translate(0,0)"/>
<path d="M0 0 C0.33 0 0.66 0 1 0 C1 11.55 1 23.1 1 35 C-10.55 35 -22.1 35 -34 35 C-31.78309049 33.89154525 -29.55730938 32.79883523 -27.30078125 31.7734375 C-15.27947548 26.14778068 -6.88090436 18.92276683 -1.96875 6.36328125 C-1.25334784 4.2535073 -0.59132029 2.14742632 0 0 Z " fill="#000000" transform="translate(511,477)"/>
<path d="M0 0 C11.55 0 23.1 0 35 0 C35 11.55 35 23.1 35 35 C33.89154525 32.78309049 32.79883523 30.55730938 31.7734375 28.30078125 C26.14778068 16.27947548 18.92276683 7.88090436 6.36328125 2.96875 C4.2535073 2.25334784 2.14742632 1.59132029 0 1 C0 0.67 0 0.34 0 0 Z " fill="#000000" transform="translate(477,0)"/>
</svg>
